<?xml version="1.0" encoding="UTF-8"?>
<svg id="Layer_1" xmlns="http://www.w3.org/2000/svg" version="1.1" viewBox="0 0 500 500">
  <!-- Generator: Adobe Illustrator 30.1.0, SVG Export Plug-In . SVG Version: 2.1.1 Build 136)  -->
  <defs>
    <style>
      .st0 {
        fill: #727272;
      }

      .st1 {
        fill: #a5a5a5;
      }

      .st2 {
        fill: #d7d7d7;
      }

      .st3 {
        fill: #535353;
      }
    </style>
  </defs>
  <path class="st0" d="M410.14,426.76l-7.77,8.77c-12.24,13.82-30.26,21.11-47.61,28.99-34.05,15.47-70.28,21.04-107.84,20.05-86.84-2.3-164.65-53.53-202.58-130.43,2.42.29,4.17-1.22,6.33-2.9l53.62-41.7c5.6-4.36,10.8-8.46,16.43-11.81,8.47,25.72,25.95,48.04,45.94,64.66,28.96,24.07,64.58,34.69,102.21,31.02,23.56-2.3,49.01-8.15,68.35-22.11l68.43,53.23c1.62,1.25,3.14,1.76,4.5,2.23Z"/>
  <path class="st3" d="M480.04,262.18c-.93,56.71-19.69,112.4-58.19,154.34-3.97,4.32-7.19,7.63-11.71,10.24-1.36-.47-2.88-.98-4.5-2.23l-68.43-53.23c25.05-18.11,41.44-46.36,47.37-76.23l-21.68-.85-108.23.08.1-87.08h220.26c4.86,18.39,5.32,36.23,5.01,54.97Z"/>
  <g>
    <path class="st2" d="M411.91,76.14l-66.33,64.72c-26.71-24.81-59.42-35.88-95.01-35.02-59.46,1.98-111.06,41.44-129.93,97.32l-70.21-54.25c-1.87-1.44-3.33-2.47-5.08-2.95C82.63,68.06,161.73,17.2,248.14,15.48c60.87-2.23,118.86,18.85,163.77,60.67Z"/>
    <path class="st1" d="M120.71,297.73c-5.62,3.35-10.83,7.45-16.43,11.81l-53.62,41.7c-2.16,1.67-3.9,3.19-6.33,2.9-32.19-65.23-33.36-145.33,1.01-208.17,1.75.47,3.2,1.5,5.08,2.95l70.21,54.25c-10.55,31.22-9.79,64.56.08,94.57Z"/>
  </g>
</svg>